<?xml version="1.0" encoding="utf-8"?>
<!-- Generator: Adobe Illustrator 28.1.0, SVG Export Plug-In . SVG Version: 6.00 Build 0)  -->
<svg version="1.1" id="Layer_1" xmlns="http://www.w3.org/2000/svg" xmlns:xlink="http://www.w3.org/1999/xlink" x="0px" y="0px"
	 viewBox="0 0 80 80" style="enable-background:new 0 0 80 80;" xml:space="preserve">
<style type="text/css">
	.st0{clip-path:url(#SVGID_00000036929674306270276400000003077387899835409077_);fill:#111213;}
</style>
<g>
	<defs>
		<rect id="SVGID_1_" x="16.08" y="5" width="47.83" height="70"/>
	</defs>
	<clipPath id="SVGID_00000078046421782537176950000003114815933288178325_">
		<use xlink:href="#SVGID_1_"  style="overflow:visible;"/>
	</clipPath>
	<path style="clip-path:url(#SVGID_00000078046421782537176950000003114815933288178325_);fill:#111213;" d="M27.04,44.32
		c0-2.65-0.01-5.3,0.01-7.95c0-0.62-0.05-0.92-0.76-0.5c-1.82,1.08-3.65,2.15-5.51,3.17c-0.53,0.29-0.57,0.67-0.56,1.17
		c0.01,3.85,0.01,7.7,0.02,11.55c0,0.47,0,0.95,0.06,1.42c1.13,10,9.18,17.4,19.28,17.73c10.58,0.35,19.91-8.35,20.18-18.88
		c0.09-3.59,0.01-7.19,0.04-10.79c0-0.52-0.19-0.79-0.63-1.03c-1.8-1-3.57-2.04-5.35-3.06c-0.84-0.48-0.85-0.48-0.85,0.54
		c0,4.48,0,8.96,0,13.44c0,0.47,0.01,0.95-0.05,1.42c-0.76,6.96-6.83,12.08-14.09,11.56c-6.47-0.46-11.76-6.17-11.78-12.96
		C27.03,48.87,27.04,46.6,27.04,44.32 M37.94,29.19c-2.16,1.24-4.12,2.39-6.1,3.49c-0.55,0.3-0.73,0.65-0.73,1.27
		c0.02,5.74,0,11.48,0.02,17.22c0.02,4.82,3.95,8.81,8.69,8.87c4.92,0.06,9.02-3.79,9.05-8.68c0.06-9.46,0.01-18.92,0.03-28.39
		c0-0.45-0.1-0.75-0.53-0.99c-5.54-3.17-11.08-6.35-16.61-9.54c-0.52-0.3-0.64-0.18-0.64,0.37c0.01,4.95,0.01,9.9,0,14.86
		c0,0.6,0.18,0.63,0.65,0.35c1.63-0.96,3.28-1.9,4.93-2.85c1.74-1,3.48-2,5.22-3c0.23,0.32,0.15,0.57,0.15,0.81
		c0.01,9.24,0,18.48,0,27.73c0,0.31,0,0.64-0.07,0.94c-0.31,1.36-1.74,2.02-2.97,1.37c-0.9-0.48-1.1-1.3-1.1-2.24
		c0.01-6.75,0.01-13.5,0.01-20.25V29.19z M27.04,5c1.48,0.85,2.81,1.61,4.15,2.37c6.99,4.02,13.97,8.04,20.97,12.04
		c0.59,0.34,0.83,0.7,0.83,1.4c-0.04,3.41,0,6.81-0.03,10.22c-0.01,0.65,0.19,1.01,0.76,1.34c3.14,1.76,6.25,3.59,9.39,5.35
		c0.6,0.34,0.82,0.72,0.82,1.41c-0.05,4.54,0.1,9.09-0.12,13.62c-0.51,10.8-8.84,20.04-19.53,21.89
		c-10.29,1.78-20.33-3.02-25.3-12.12c-1.9-3.47-2.84-7.2-2.87-11.15c-0.03-4.54,0-9.08-0.02-13.62c0-0.53,0.15-0.84,0.63-1.11
		c3.11-1.76,6.18-3.57,9.3-5.31c0.75-0.42,1.05-0.87,1.05-1.75c-0.04-7.79-0.02-15.58-0.02-23.37V5z"/>
</g>
</svg>
