<?xml version="1.0" encoding="utf-8"?>
<!-- Generator: Adobe Illustrator 28.1.0, SVG Export Plug-In . SVG Version: 6.00 Build 0)  -->
<svg version="1.1" id="Layer_1" xmlns="http://www.w3.org/2000/svg" xmlns:xlink="http://www.w3.org/1999/xlink" x="0px" y="0px"
	 viewBox="0 0 314.14 117.17" style="enable-background:new 0 0 314.14 117.17;" xml:space="preserve">
<style type="text/css">
	.st0{clip-path:url(#SVGID_00000090286558995678513340000008980392745848519611_);fill:#00A696;}
	.st1{clip-path:url(#SVGID_00000090286558995678513340000008980392745848519611_);fill:#FFFFFF;}
</style>
<g>
	<defs>
		<rect id="SVGID_1_" x="25.26" y="23.89" width="266.67" height="70"/>
	</defs>
	<clipPath id="SVGID_00000129914819714237707670000017466307276820611250_">
		<use xlink:href="#SVGID_1_"  style="overflow:visible;"/>
	</clipPath>
	<path style="clip-path:url(#SVGID_00000129914819714237707670000017466307276820611250_);fill:#00A696;" d="M36.21,63.21
		c0-2.65-0.01-5.3,0.01-7.95c0-0.62-0.05-0.92-0.76-0.5c-1.82,1.08-3.65,2.15-5.51,3.17c-0.53,0.29-0.57,0.67-0.56,1.17
		c0.01,3.85,0.01,7.7,0.02,11.55c0,0.47,0,0.95,0.06,1.42c1.13,10,9.18,17.4,19.28,17.73c10.58,0.35,19.91-8.35,20.18-18.88
		c0.09-3.59,0.01-7.19,0.04-10.79c0-0.52-0.19-0.79-0.63-1.03c-1.8-1-3.57-2.04-5.35-3.06c-0.84-0.48-0.85-0.48-0.85,0.54
		c0,4.48,0,8.96,0,13.44c0,0.47,0.01,0.95-0.05,1.42c-0.76,6.96-6.83,12.08-14.09,11.56c-6.47-0.46-11.76-6.17-11.78-12.96
		C36.21,67.76,36.21,65.49,36.21,63.21 M47.11,48.08c-2.16,1.24-4.12,2.39-6.1,3.49c-0.55,0.3-0.73,0.65-0.73,1.27
		c0.02,5.74,0,11.48,0.02,17.22c0.02,4.82,3.95,8.81,8.69,8.87c4.92,0.06,9.02-3.79,9.05-8.68c0.06-9.46,0.01-18.93,0.03-28.39
		c0-0.45-0.1-0.75-0.53-0.99c-5.54-3.17-11.08-6.35-16.61-9.54c-0.52-0.3-0.64-0.18-0.64,0.37c0.01,4.95,0.01,9.9,0,14.86
		c0,0.6,0.18,0.63,0.65,0.35c1.63-0.96,3.28-1.9,4.93-2.85c1.74-1,3.48-2,5.22-3c0.23,0.32,0.15,0.57,0.15,0.81
		c0,9.24,0,18.48,0,27.73c0,0.31,0,0.64-0.07,0.94c-0.31,1.36-1.74,2.02-2.97,1.37c-0.9-0.48-1.1-1.3-1.1-2.24
		c0.01-6.75,0.01-13.5,0.01-20.25V48.08z M36.21,23.89c1.48,0.85,2.81,1.61,4.15,2.37c6.99,4.02,13.97,8.04,20.97,12.04
		c0.59,0.34,0.83,0.7,0.83,1.4c-0.04,3.41,0,6.81-0.03,10.22c-0.01,0.65,0.19,1.01,0.76,1.34c3.14,1.76,6.25,3.59,9.39,5.35
		c0.6,0.34,0.82,0.72,0.82,1.41c-0.05,4.54,0.1,9.09-0.12,13.62c-0.51,10.8-8.84,20.04-19.53,21.89
		c-10.29,1.78-20.33-3.02-25.3-12.12c-1.9-3.47-2.84-7.2-2.87-11.15c-0.03-4.54,0-9.08-0.02-13.62c0-0.53,0.15-0.84,0.63-1.11
		c3.11-1.76,6.18-3.57,9.3-5.31c0.75-0.42,1.05-0.87,1.04-1.75c-0.04-7.79-0.02-15.58-0.02-23.37V23.89z"/>
	<path style="clip-path:url(#SVGID_00000129914819714237707670000017466307276820611250_);fill:#FFFFFF;" d="M286.35,76.57
		c1.2,0,2.22-0.18,3.06-0.55c0.84-0.37,1.47-0.85,1.89-1.47c0.42-0.61,0.63-1.3,0.63-2.05c0-0.88-0.23-1.57-0.69-2.08
		c-0.46-0.51-1.01-0.88-1.64-1.12s-1.43-0.45-2.39-0.66c-0.85-0.18-1.47-0.35-1.85-0.52c-0.38-0.17-0.58-0.42-0.58-0.76
		c0-0.34,0.16-0.61,0.49-0.82c0.32-0.21,0.84-0.31,1.55-0.31c1.13,0,2.29,0.32,3.49,0.97l1.1-2.65c-0.61-0.36-1.32-0.63-2.12-0.82
		c-0.8-0.19-1.62-0.28-2.45-0.28c-1.21,0-2.24,0.18-3.07,0.54c-0.83,0.36-1.46,0.85-1.88,1.47c-0.42,0.62-0.63,1.31-0.63,2.08
		c0,0.88,0.23,1.57,0.68,2.09c0.45,0.52,1,0.89,1.64,1.12c0.63,0.23,1.43,0.45,2.38,0.66c0.86,0.19,1.49,0.38,1.88,0.55
		c0.39,0.17,0.58,0.44,0.58,0.8c0,0.68-0.68,1.03-2.05,1.03c-0.72,0-1.45-0.11-2.2-0.34c-0.74-0.23-1.4-0.53-1.96-0.9l-1.17,2.63
		c0.6,0.42,1.38,0.76,2.34,1.01C284.34,76.44,285.33,76.57,286.35,76.57 M271.55,73.56v-2.3h5.6v-2.66h-5.6v-2.12h6.35v-2.75h-9.88
		v12.6h10.12v-2.75H271.55z M254.92,73.47v-6.91h2.25c1.08,0,1.95,0.31,2.6,0.92s0.98,1.46,0.98,2.54s-0.33,1.93-0.98,2.54
		s-1.52,0.92-2.6,0.92H254.92z M251.35,76.31h5.96c1.38,0,2.6-0.26,3.67-0.77s1.9-1.25,2.48-2.2c0.59-0.95,0.88-2.06,0.88-3.33
		s-0.29-2.38-0.88-3.33c-0.59-0.95-1.42-1.68-2.48-2.2s-2.29-0.77-3.67-0.77h-5.96V76.31z M239.56,71.24l1.62-4.03l1.62,4.03H239.56
		z M244.84,76.31h3.71l-5.58-12.6h-3.51l-5.56,12.6h3.64l0.99-2.45h5.33L244.84,76.31z M228.04,68.38c0,0.59-0.19,1.04-0.56,1.36
		c-0.37,0.32-0.92,0.48-1.66,0.48h-1.98v-3.69h1.98c0.73,0,1.28,0.16,1.66,0.49C227.86,67.33,228.04,67.79,228.04,68.38
		 M228.08,76.31h3.82l-2.72-3.96c0.79-0.38,1.4-0.91,1.83-1.59s0.64-1.47,0.64-2.39c0-0.95-0.23-1.77-0.68-2.47
		c-0.46-0.7-1.1-1.24-1.94-1.62s-1.83-0.57-2.97-0.57h-5.76v12.6h3.56v-3.35h1.94L228.08,76.31z M213.07,73.2
		c-0.6,0.28-1.24,0.41-1.93,0.41c-0.7,0-1.31-0.15-1.85-0.46c-0.54-0.31-0.96-0.73-1.26-1.28c-0.3-0.55-0.45-1.17-0.45-1.86
		c0-1.09,0.33-1.97,0.99-2.62s1.53-0.98,2.61-0.98c1.19,0,2.21,0.47,3.06,1.4l2.27-2.05c-0.62-0.74-1.4-1.31-2.34-1.71
		c-0.94-0.4-1.99-0.59-3.17-0.59c-1.34,0-2.55,0.28-3.62,0.84c-1.07,0.56-1.9,1.34-2.5,2.33c-0.6,1-0.9,2.12-0.9,3.38
		s0.3,2.39,0.9,3.38c0.6,1,1.43,1.77,2.48,2.33c1.06,0.56,2.24,0.84,3.56,0.84c0.94,0,1.87-0.14,2.81-0.41s1.76-0.67,2.48-1.19
		v-5.22h-3.15V73.2z M195.1,70.21h-1.98v-3.69h1.98c0.73,0,1.28,0.16,1.66,0.49c0.37,0.32,0.56,0.78,0.56,1.37s-0.19,1.04-0.56,1.36
		C196.39,70.05,195.84,70.21,195.1,70.21 M195.32,63.71h-5.76v12.6h3.56v-3.29h2.2c1.14,0,2.13-0.19,2.97-0.57
		c0.84-0.38,1.49-0.92,1.94-1.61c0.46-0.7,0.68-1.52,0.68-2.47s-0.23-1.77-0.68-2.47c-0.46-0.7-1.1-1.24-1.94-1.62
		S196.46,63.71,195.32,63.71 M179.43,76.57c1.87,0,3.33-0.51,4.36-1.53c1.04-1.02,1.56-2.47,1.56-4.34v-6.98h-3.51v6.88
		c0,2.02-0.79,3.02-2.38,3.02c-1.6,0-2.39-1.01-2.39-3.02v-6.88h-3.56v6.98c0,1.87,0.52,3.32,1.56,4.34
		C176.1,76.06,177.55,76.57,179.43,76.57 M158.76,63.71v6.71l-5.56-6.71h-2.93v12.6h3.49V69.6l5.56,6.71h2.93v-12.6H158.76z
		 M138.48,71.24l1.62-4.03l1.62,4.03H138.48z M143.75,76.31h3.71l-5.58-12.6h-3.51l-5.56,12.6h3.64l0.99-2.45h5.33L143.75,76.31z
		 M125.19,73.74h-2.99v-2.56h2.99c1.25,0,1.87,0.43,1.87,1.28C127.07,73.31,126.44,73.74,125.19,73.74 M124.65,66.29
		c1.2,0,1.8,0.4,1.8,1.21c0,0.82-0.6,1.22-1.8,1.22h-2.45v-2.43H124.65z M128.36,69.74c0.54-0.28,0.96-0.65,1.25-1.12
		c0.29-0.47,0.44-1.01,0.44-1.61c0-1.01-0.42-1.81-1.26-2.4c-0.84-0.59-2.06-0.89-3.67-0.89h-6.44v12.6h6.8
		c1.68,0,2.96-0.3,3.85-0.9s1.33-1.45,1.33-2.56c0-0.76-0.2-1.4-0.61-1.94C129.65,70.39,129.08,70,128.36,69.74 M111.32,68.38
		c0,0.59-0.19,1.04-0.56,1.36c-0.37,0.32-0.92,0.48-1.66,0.48h-1.98v-3.69h1.98c0.73,0,1.28,0.16,1.66,0.49
		C111.13,67.33,111.32,67.79,111.32,68.38 M111.35,76.31h3.82l-2.72-3.96c0.79-0.38,1.4-0.91,1.83-1.59s0.64-1.47,0.64-2.39
		c0-0.95-0.23-1.77-0.68-2.47c-0.46-0.7-1.1-1.24-1.94-1.62c-0.84-0.38-1.83-0.57-2.97-0.57h-5.76v12.6h3.56v-3.35h1.94
		L111.35,76.31z M93.42,76.57c1.87,0,3.33-0.51,4.36-1.53c1.04-1.02,1.56-2.47,1.56-4.34v-6.98h-3.51v6.88
		c0,2.02-0.79,3.02-2.38,3.02c-1.6,0-2.39-1.01-2.39-3.02v-6.88H87.5v6.98c0,1.87,0.52,3.32,1.56,4.34
		C90.1,76.06,91.55,76.57,93.42,76.57"/>
</g>
</svg>
