<?xml version="1.0" encoding="UTF-8" standalone="no" ?>
<!DOCTYPE svg PUBLIC "-//W3C//DTD SVG 1.1//EN" "http://www.w3.org/Graphics/SVG/1.1/DTD/svg11.dtd">
<svg xmlns="http://www.w3.org/2000/svg" xmlns:xlink="http://www.w3.org/1999/xlink" version="1.1" width="59.60000000000001" height="55.2" viewBox="0 0 59.60000000000001 55.2" xml:space="preserve">
<desc>Created with Fabric.js 4.6.0</desc>
<defs>
</defs>
<g transform="matrix(1 0 0 1 29.8 27.6)" id="LfZ0441inQsRQZPn3XF7W" clip-path="url(#CLIPPATH_3)"  >
<clipPath id="CLIPPATH_3" >
	<rect transform="matrix(1 0 0 1 61.45 0)" id="SVGID_00000109745952972855984980000010927384510946537915_" x="-90.75" y="-27.1" rx="0" ry="0" width="181.5" height="54.2" />
</clipPath>
<path style="stroke: none; stroke-width: 1; stroke-dasharray: none; stroke-linecap: butt; stroke-dashoffset: 0; stroke-linejoin: miter; stroke-miterlimit: 4; fill: rgb(76,102,176); fill-rule: nonzero; opacity: 1;" vector-effect="non-scaling-stroke"  transform=" translate(-40.6, -36.6)" d="M 65.2 41.6 C 64.2 41.6 63.400000000000006 40.800000000000004 63.400000000000006 39.800000000000004 C 63.400000000000006 38.800000000000004 64.2 38.00000000000001 65.2 38.00000000000001 C 66.2 38.00000000000001 67 38.800000000000004 67 39.800000000000004 C 67 40.800000000000004 66.2 41.6 65.2 41.6 M 31 39.8 C 31 40.8 30.2 41.599999999999994 29.2 41.599999999999994 C 28.2 41.599999999999994 27.4 40.8 27.4 39.8 C 27.4 38.8 28.2 38 29.2 38 C 30.2 38 31 38.8 31 39.8 M 20.8 36.6 C 20.8 28.400000000000002 26.5 21.5 34.2 19.400000000000002 L 34.2 25.700000000000003 C 32.300000000000004 26.300000000000004 30.900000000000002 28.1 30.900000000000002 30.1 C 30.900000000000002 32.7 33 34.800000000000004 35.6 34.800000000000004 C 38.2 34.800000000000004 40.300000000000004 32.7 40.300000000000004 30.100000000000005 C 40.300000000000004 28.000000000000004 38.900000000000006 26.300000000000004 37.00000000000001 25.700000000000003 L 37.00000000000001 18.800000000000004 C 37.60000000000001 18.700000000000003 38.20000000000001 18.700000000000003 38.800000000000004 18.700000000000003 C 45.900000000000006 18.700000000000003 52.10000000000001 22.800000000000004 55.10000000000001 28.6 L 48.60000000000001 28.6 C 45.10000000000001 28.6 43.900000000000006 31.400000000000002 43.900000000000006 33.300000000000004 L 43.900000000000006 53.60000000000001 C 42.7 53.900000000000006 41.50000000000001 54.10000000000001 40.300000000000004 54.20000000000001 L 40.300000000000004 43 C 40.300000000000004 41.1 39.00000000000001 38.3 35.6 38.3 L 33.6 38.3 C 33 36.4 31.200000000000003 35.099999999999994 29.1 35.099999999999994 C 26.5 35.099999999999994 24.3 37.199999999999996 24.3 39.8 C 24.3 42.4 26.400000000000002 44.5 29.1 44.5 C 31.200000000000003 44.5 33 43.2 33.6 41.3 L 35.6 41.3 C 37.1 41.3 37.4 42.4 37.4 43.099999999999994 L 37.4 54.39999999999999 C 28.2 53.6 20.8 45.9 20.8 36.6 M 35.7 28.4 C 36.7 28.4 37.5 29.2 37.5 30.2 C 37.5 31.2 36.7 32 35.7 32 C 34.7 32 33.900000000000006 31.2 33.900000000000006 30.2 C 33.9 29.2 34.7 28.4 35.7 28.4 M 47 52.6 L 47 33.4 C 47 33 47.1 31.599999999999998 48.8 31.599999999999998 L 56.4 31.599999999999998 C 56.9 33.199999999999996 57.1 34.8 57.1 36.599999999999994 C 57.2 43.6 53 49.6 47 52.6 M 66.6 35.4 C 66 21 53.8 9.5 39 9.5 C 23.7 9.5 11.3 21.7 11.3 36.6 C 11.3 51.5 23.700000000000003 63.7 39 63.7 C 39.8 63.7 40.5 63.1 40.5 62.300000000000004 L 40.5 57.300000000000004 C 51.5 56.6 60.1 47.60000000000001 60.1 36.7 C 60.1 25.300000000000004 50.6 16.000000000000004 39 16.000000000000004 C 27.4 16.000000000000004 17.9 25.300000000000004 17.9 36.7 C 17.9 47.6 26.599999999999998 56.6 37.5 57.300000000000004 L 37.5 60.800000000000004 C 24.6 60 14.3 49.5 14.3 36.6 C 14.3 23.3 25.4 12.400000000000002 39 12.400000000000002 C 52.2 12.400000000000002 63 22.6 63.7 35.400000000000006 C 61.800000000000004 36.00000000000001 60.5 37.800000000000004 60.5 39.800000000000004 C 60.5 42.400000000000006 62.6 44.50000000000001 65.2 44.50000000000001 C 67.8 44.50000000000001 69.9 42.400000000000006 69.9 39.800000000000004 C 69.9 37.7 68.5 36 66.6 35.4" stroke-linecap="round" />
</g>
</svg>