<?xml version="1.0" encoding="utf-8"?>
<!-- Generator: Adobe Illustrator 28.1.0, SVG Export Plug-In . SVG Version: 6.00 Build 0)  -->
<svg version="1.1" id="Layer_1" xmlns="http://www.w3.org/2000/svg" xmlns:xlink="http://www.w3.org/1999/xlink" x="0px" y="0px"
	 viewBox="0 0 461.41 461.41" style="enable-background:new 0 0 461.41 461.41;" xml:space="preserve">
<style type="text/css">
	.st0{clip-path:url(#SVGID_00000170974660018230464930000002479210314599782064_);}
	.st1{opacity:0.1;clip-path:url(#SVGID_00000089533540976684123680000008869636651116773292_);}
	.st2{clip-path:url(#SVGID_00000088093735043438034900000010885144951139738753_);fill:#FFFFFF;}
</style>
<g>
	<defs>
		<rect id="SVGID_1_" x="79.16" y="19.06" width="303.1" height="423.3"/>
	</defs>
	<clipPath id="SVGID_00000047044191172657297440000000459103430636960926_">
		<use xlink:href="#SVGID_1_"  style="overflow:visible;"/>
	</clipPath>
	<g style="clip-path:url(#SVGID_00000047044191172657297440000000459103430636960926_);">
		<defs>
			<rect id="SVGID_00000052098940903887754250000016816734559274216343_" x="79.16" y="19.06" width="303.1" height="423.3"/>
		</defs>
		<clipPath id="SVGID_00000165222002159055661730000012756610859071397287_">
			<use xlink:href="#SVGID_00000052098940903887754250000016816734559274216343_"  style="overflow:visible;"/>
		</clipPath>
		<g style="opacity:0.1;clip-path:url(#SVGID_00000165222002159055661730000012756610859071397287_);">
			<g>
				<defs>
					<rect id="SVGID_00000136395345376495585850000009067113305018113926_" x="70.16" y="12.06" width="321.1" height="431.3"/>
				</defs>
				<clipPath id="SVGID_00000002365727582550959330000011115230398943882120_">
					<use xlink:href="#SVGID_00000136395345376495585850000009067113305018113926_"  style="overflow:visible;"/>
				</clipPath>
				<path style="clip-path:url(#SVGID_00000002365727582550959330000011115230398943882120_);fill:#FFFFFF;" d="M148.58,256.86
					c0-16.02-0.06-32.05,0.05-48.07c0.03-3.75-0.33-5.56-4.8-3.02c-11.53,6.55-23.14,12.98-34.9,19.14
					c-3.34,1.75-3.59,4.08-3.58,7.06c0.08,23.27,0.08,46.55,0.13,69.82c0.01,2.86,0.03,5.74,0.37,8.57
					c7.14,60.47,58.15,105.21,122.18,107.24c67.07,2.12,126.17-50.47,127.84-114.15c0.57-21.73,0.07-43.49,0.23-65.24
					c0.02-3.12-1.18-4.76-3.96-6.24c-11.37-6.05-22.61-12.34-33.9-18.51c-5.35-2.92-5.38-2.9-5.39,3.24
					c-0.01,27.09,0,54.18-0.03,81.27c0,2.86,0.04,5.74-0.28,8.57c-4.84,42.07-43.31,73.04-89.3,69.89
					c-41.01-2.81-74.52-37.34-74.64-78.37C148.55,284.33,148.58,270.59,148.58,256.86 M217.64,165.35
					c-13.69,7.5-26.08,14.45-38.67,21.08c-3.47,1.83-4.64,3.94-4.62,7.67c0.15,34.71-0.01,69.43,0.11,104.14
					c0.1,29.14,25.03,53.29,55.07,53.65c31.15,0.37,57.15-22.9,57.36-52.51c0.39-57.22,0.1-114.45,0.16-171.67
					c0-2.73-0.66-4.52-3.36-5.99c-35.13-19.16-70.2-38.41-105.24-57.72c-3.28-1.81-4.04-1.06-4.04,2.26
					c0.06,29.95,0.07,59.89,0,89.84c-0.01,3.62,1.11,3.81,4.13,2.12c10.35-5.83,20.8-11.49,31.22-17.21
					c11.03-6.05,22.06-12.09,33.09-18.13c1.45,1.91,0.92,3.47,0.92,4.91c0.03,55.89,0.03,111.78,0.01,167.66
					c0,1.9,0.01,3.85-0.42,5.68c-1.93,8.2-11.02,12.19-18.79,8.26c-5.72-2.89-6.96-7.85-6.95-13.55
					c0.07-40.82,0.03-81.64,0.03-122.46V165.35z M148.58,19.06c9.37,5.11,17.84,9.7,26.27,14.34
					c44.27,24.29,88.51,48.63,132.85,72.81c3.76,2.05,5.29,4.23,5.23,8.45c-0.25,20.59-0.01,41.19-0.21,61.79
					c-0.04,3.91,1.18,6.14,4.83,8.09c19.91,10.67,39.6,21.69,59.51,32.36c3.81,2.04,5.21,4.35,5.16,8.53
					c-0.33,27.46,0.64,54.96-0.72,82.36c-3.26,65.32-56.04,121.2-123.74,132.36c-65.22,10.75-128.83-18.28-160.31-73.27
					c-12.02-20.99-18-43.57-18.17-67.43c-0.2-27.46,0.01-54.92-0.12-82.38c-0.02-3.24,0.97-5.07,4.01-6.71
					c19.7-10.62,39.19-21.61,58.95-32.13c4.75-2.53,6.65-5.23,6.62-10.58c-0.25-47.1-0.15-94.21-0.15-141.31V19.06z"/>
			</g>
		</g>
	</g>
</g>
</svg>
